<svg width="19" height="13" viewBox="0 0 19 13" fill="none" xmlns="http://www.w3.org/2000/svg">
<path fill-rule="evenodd" clip-rule="evenodd" d="M5.74342 11.8218H10.3787H10.3803C10.7076 11.8218 10.9746 12.0857 10.9746 12.4109C10.9746 12.7361 10.7083 13 10.3803 13H5.74501C4.1072 13 2.77366 11.6788 2.77366 10.0545V2.01121L1.01462 3.75496C0.782456 3.98511 0.407669 3.98511 0.174715 3.75496C-0.0582385 3.52482 -0.0582385 3.15172 0.174715 2.92236L2.94798 0.173197C3.17934 -0.0577324 3.55572 -0.0577324 3.78788 0.173197L6.56114 2.92236C6.7933 3.15172 6.7933 3.52482 6.56114 3.75496C6.44545 3.87043 6.29332 3.92777 6.14119 3.92777C5.98905 3.92777 5.83692 3.87043 5.71965 3.75496L3.96061 2.01121V10.0545C3.96061 11.0285 4.7609 11.8218 5.74342 11.8218ZM17.9854 9.24543C18.2175 9.01529 18.5939 9.01529 18.8253 9.24543C19.0582 9.47557 19.0582 9.84868 18.8253 10.078L16.052 12.8272C15.9355 12.9434 15.785 13 15.6321 13C15.4791 13 15.327 12.9427 15.2121 12.8272L12.4389 10.078C12.2059 9.84868 12.2075 9.47557 12.4389 9.24543C12.6702 9.01529 13.0466 9.01529 13.2788 9.24543L15.0378 10.9892V2.94592C15.0378 1.97193 14.2375 1.1786 13.255 1.1786H8.61969C8.29165 1.1786 8.02542 0.914685 8.02542 0.589499C8.02542 0.264312 8.29165 0.000392737 8.61969 0.000392737H13.255C14.8928 0.000392737 16.2263 1.32156 16.2263 2.94592V10.9892L17.9854 9.24543Z" fill="#6E7F8D"/>
</svg>
