<svg width="16" height="16" viewBox="0 0 16 16" fill="none" xmlns="http://www.w3.org/2000/svg">
<path d="M11.828 4.25321L7.91507 0.179059C7.68577 -0.0596863 7.31404 -0.0596863 7.08552 0.179059L3.17256 4.25321C2.94248 4.49195 2.94248 4.879 3.17256 5.11693C3.40264 5.35486 3.77281 5.35649 4.00211 5.11693L6.91335 2.08576V10.3889C6.91335 10.7262 7.1763 11 7.50029 11C7.82429 11 8.08724 10.7262 8.08724 10.3889V2.08576L10.9985 5.11693C11.1127 5.23671 11.263 5.29619 11.4133 5.29619C11.5635 5.29619 11.7138 5.23752 11.828 5.11693C12.0573 4.87818 12.0573 4.49195 11.828 4.25321Z" fill="#6E7F8D"/>
<path d="M14.1664 16H1.8336C0.8224 16 0 15.1723 0 14.1546V9.60386C0 9.27053 0.2688 9 0.6 9C0.9312 9 1.2 9.27053 1.2 9.60386V14.1546C1.2 14.5064 1.484 14.7923 1.8336 14.7923H14.1664C14.516 14.7923 14.8 14.5064 14.8 14.1546V9.60386C14.8 9.27053 15.0688 9 15.4 9C15.7312 9 16 9.27053 16 9.60386V14.1546C16 15.1723 15.1776 16 14.1664 16Z" fill="#6E7F8D"/>
</svg>
